<svg width="38" height="30" viewBox="0 0 38 30" fill="none" xmlns="http://www.w3.org/2000/svg">
<path d="M32.75 0H0.25V25H32.75V0ZM30.25 22.5H2.75V2.5H30.25V22.5Z" fill="#010101"/>
<path d="M35.25 6.25V27.5H6.5V30H37.75V6.25H35.25Z" fill="#010101"/>
<path d="M16.5 18.6296C19.6016 18.6296 22.125 15.8845 22.125 12.5104C22.125 9.13623 19.6016 6.39114 16.5 6.39114C13.3984 6.39114 10.875 9.13615 10.875 12.5104C10.875 15.8846 13.3984 18.6296 16.5 18.6296ZM16.5 8.89115C18.2231 8.89115 19.625 10.5147 19.625 12.5104C19.625 14.506 18.2231 16.1296 16.5 16.1296C14.7769 16.1296 13.375 14.506 13.375 12.5104C13.375 10.5147 14.7769 8.89115 16.5 8.89115Z" fill="#010101"/>
<path d="M5.25 5.625H7.75V19.375H5.25V5.625Z" fill="#010101"/>
<path d="M25.25 5.625H27.75V19.375H25.25V5.625Z" fill="#010101"/>
</svg>
